# Blender 3.3.0
# www.blender.org
mtllib beebody.mtl
o Roundcube
v 1.058625 -0.577350 -0.577350
v 0.529313 -0.677003 -0.677003
v 0.000000 -0.707107 -0.707107
v -0.529313 -0.677003 -0.677003
v 1.241348 -0.288675 -0.677003
v 0.620674 -0.338502 -0.877971
v 0.000000 -0.353553 -0.935414
v -0.620674 -0.338502 -0.877971
v 1.296546 0.000000 -0.707107
v 0.648273 0.000000 -0.935414
v 0.000000 0.000000 -1.000000
v -0.648273 0.000000 -0.935414
v 1.241348 0.288675 -0.677003
v 0.620674 0.338502 -0.877971
v 0.000000 0.353553 -0.935414
v -0.620674 0.338502 -0.877971
v -1.058625 -0.577350 -0.577350
v -1.241348 -0.677003 -0.288675
v -1.296546 -0.707107 0.000000
v -1.241348 -0.677003 0.288675
v -1.241348 -0.288675 -0.677003
v -1.609842 -0.338502 -0.338502
v -1.715169 -0.353553 0.000000
v -1.609842 -0.338502 0.338502
v -1.296546 0.000000 -0.707107
v -1.715169 0.000000 -0.353553
v -1.833593 0.000000 0.000000
v -1.715169 0.000000 0.353553
v -1.241348 0.288675 -0.677003
v -1.609842 0.338502 -0.338502
v -1.715169 0.353553 0.000000
v -1.609842 0.338502 0.338502
v -1.058625 -0.577350 0.577350
v -0.529313 -0.677003 0.677003
v 0.000000 -0.707107 0.707107
v 0.529313 -0.677003 0.677003
v -1.241348 -0.288675 0.677003
v -0.620674 -0.338502 0.877971
v 0.000000 -0.353553 0.935414
v 0.620674 -0.338502 0.877971
v -1.296546 0.000000 0.707107
v -0.648273 0.000000 0.935414
v 0.000000 0.000000 1.000000
v 0.648273 0.000000 0.935414
v -1.241348 0.288675 0.677003
v -0.620674 0.338502 0.877971
v 0.000000 0.353553 0.935414
v 0.620674 0.338502 0.877971
v 1.058625 -0.577350 0.577350
v 1.241348 -0.677003 0.288675
v 1.296546 -0.707107 0.000000
v 1.241348 -0.677003 -0.288675
v 1.241348 -0.288675 0.677003
v 1.609842 -0.338502 0.338502
v 1.715169 -0.353553 0.000000
v 1.609842 -0.338502 -0.338502
v 1.296546 0.000000 0.707107
v 1.715169 0.000000 0.353553
v 1.833593 0.000000 0.000000
v 1.715169 0.000000 -0.353553
v 1.241348 0.288675 0.677003
v 1.609842 0.338502 0.338502
v 1.715169 0.353553 0.000000
v 1.609842 0.338502 -0.338502
v 0.620674 -0.877971 0.338502
v 0.000000 -0.935414 0.353553
v -0.620674 -0.877971 0.338502
v 0.648273 -0.935414 0.000000
v 0.000000 -1.000000 0.000000
v -0.648273 -0.935414 0.000000
v 0.620674 -0.877971 -0.338502
v 0.000000 -0.935414 -0.353553
v -0.620674 -0.877971 -0.338502
v 1.058625 0.577350 -0.577350
v 0.529313 0.677003 -0.677003
v 0.000000 0.707107 -0.707107
v -0.529313 0.677003 -0.677003
v -1.058625 0.577350 -0.577350
v 1.241348 0.677003 -0.288675
v 0.620674 0.877971 -0.338502
v 0.000000 0.935414 -0.353553
v -0.620674 0.877971 -0.338502
v -1.241348 0.677003 -0.288675
v 1.296546 0.707107 0.000000
v 0.648273 0.935414 0.000000
v 0.000000 1.000000 0.000000
v -0.648273 0.935414 0.000000
v -1.296546 0.707107 0.000000
v 1.241348 0.677003 0.288675
v 0.620674 0.877971 0.338502
v 0.000000 0.935414 0.353553
v -0.620674 0.877971 0.338502
v -1.241348 0.677003 0.288675
v 1.058625 0.577350 0.577350
v 0.529313 0.677003 0.677003
v 0.000000 0.707107 0.707107
v -0.529313 0.677003 0.677003
v -1.058625 0.577350 0.577350
vn 0.3051 -0.4776 -0.8239
vn 0.0910 -0.5264 -0.8453
vn -0.0784 -0.5408 -0.8375
vn -0.2530 -0.5435 -0.8004
vn 0.3279 -0.1598 -0.9311
vn 0.0976 -0.1742 -0.9799
vn -0.0950 -0.1789 -0.9793
vn -0.3161 -0.1837 -0.9308
vn 0.3279 0.1598 -0.9311
vn 0.0976 0.1742 -0.9799
vn -0.0950 0.1789 -0.9793
vn -0.3161 0.1837 -0.9308
vn 0.3051 0.4776 -0.8239
vn 0.0910 0.5264 -0.8453
vn -0.0784 0.5408 -0.8375
vn -0.2530 0.5435 -0.8004
vn -0.5904 -0.5707 -0.5707
vn -0.6479 -0.7348 -0.2005
vn -0.6282 -0.7438 0.2285
vn -0.4846 -0.6185 0.6185
vn -0.6479 -0.2005 -0.7348
vn -0.9083 -0.2958 -0.2958
vn -0.9037 -0.3027 0.3027
vn -0.6282 -0.2285 0.7438
vn -0.6479 0.2005 -0.7348
vn -0.9083 0.2958 -0.2958
vn -0.9037 0.3027 0.3027
vn -0.6282 0.2285 0.7438
vn -0.5904 0.5707 -0.5707
vn -0.6479 0.7348 -0.2005
vn -0.6282 0.7438 0.2285
vn -0.4846 0.6185 0.6185
vn -0.3051 -0.4776 0.8239
vn -0.0910 -0.5264 0.8453
vn 0.0784 -0.5408 0.8375
vn 0.2530 -0.5435 0.8004
vn -0.3279 -0.1598 0.9311
vn -0.0976 -0.1742 0.9799
vn 0.0950 -0.1789 0.9793
vn 0.3161 -0.1837 0.9308
vn -0.3279 0.1598 0.9311
vn -0.0976 0.1742 0.9799
vn 0.0950 0.1789 0.9793
vn 0.3161 0.1837 0.9308
vn -0.3051 0.4776 0.8239
vn -0.0910 0.5264 0.8453
vn 0.0784 0.5408 0.8375
vn 0.2530 0.5435 0.8004
vn 0.5904 -0.5707 0.5707
vn 0.6479 -0.7348 0.2005
vn 0.6282 -0.7438 -0.2285
vn 0.4846 -0.6185 -0.6185
vn 0.6479 -0.2005 0.7348
vn 0.9083 -0.2958 0.2958
vn 0.9037 -0.3027 -0.3027
vn 0.6282 -0.2285 -0.7438
vn 0.6479 0.2005 0.7348
vn 0.9083 0.2958 0.2958
vn 0.9037 0.3027 -0.3027
vn 0.6282 0.2285 -0.7438
vn 0.5904 0.5707 0.5707
vn 0.6479 0.7348 0.2005
vn 0.6282 0.7438 -0.2285
vn 0.4846 0.6185 -0.6185
vn 0.3051 -0.8239 0.4776
vn 0.0910 -0.8453 0.5264
vn -0.0784 -0.8375 0.5408
vn -0.2530 -0.8004 0.5435
vn 0.3279 -0.9311 0.1598
vn 0.0976 -0.9799 0.1742
vn -0.0950 -0.9793 0.1789
vn -0.3161 -0.9308 0.1837
vn 0.3279 -0.9311 -0.1598
vn 0.0976 -0.9799 -0.1742
vn -0.0950 -0.9793 -0.1789
vn -0.3161 -0.9308 -0.1837
vn 0.3051 -0.8239 -0.4776
vn 0.0910 -0.8453 -0.5264
vn -0.0784 -0.8375 -0.5408
vn -0.2530 -0.8004 -0.5435
vn 0.3051 0.8239 -0.4776
vn 0.0910 0.8453 -0.5264
vn -0.0784 0.8375 -0.5408
vn -0.2530 0.8004 -0.5435
vn 0.3279 0.9311 -0.1598
vn 0.0976 0.9799 -0.1742
vn -0.0950 0.9793 -0.1789
vn -0.3161 0.9308 -0.1837
vn 0.3279 0.9311 0.1598
vn 0.0976 0.9799 0.1742
vn -0.0950 0.9793 0.1789
vn -0.3161 0.9308 0.1837
vn 0.3051 0.8239 0.4776
vn 0.0910 0.8453 0.5264
vn -0.0784 0.8375 0.5408
vn -0.2530 0.8004 0.5435
vn 0.2530 -0.5435 -0.8004
vn 0.0784 -0.5408 -0.8375
vn -0.0910 -0.5264 -0.8453
vn -0.3051 -0.4776 -0.8239
vn 0.3161 -0.1837 -0.9308
vn 0.0950 -0.1789 -0.9793
vn -0.0976 -0.1742 -0.9799
vn -0.3279 -0.1598 -0.9311
vn 0.3161 0.1837 -0.9308
vn 0.0950 0.1789 -0.9793
vn -0.0976 0.1742 -0.9799
vn -0.3279 0.1598 -0.9311
vn 0.2530 0.5435 -0.8004
vn 0.0784 0.5408 -0.8375
vn -0.0910 0.5264 -0.8453
vn -0.3051 0.4776 -0.8239
vn -0.4846 -0.6185 -0.6185
vn -0.6282 -0.7438 -0.2285
vn -0.6479 -0.7348 0.2005
vn -0.5904 -0.5707 0.5707
vn -0.6282 -0.2285 -0.7438
vn -0.9037 -0.3027 -0.3027
vn -0.9083 -0.2958 0.2958
vn -0.6479 -0.2005 0.7348
vn -0.6282 0.2285 -0.7438
vn -0.9037 0.3027 -0.3027
vn -0.9083 0.2958 0.2958
vn -0.6479 0.2005 0.7348
vn -0.4846 0.6185 -0.6185
vn -0.6282 0.7438 -0.2285
vn -0.6479 0.7348 0.2005
vn -0.5904 0.5707 0.5707
vn -0.2530 -0.5435 0.8004
vn -0.0784 -0.5408 0.8375
vn 0.0910 -0.5264 0.8453
vn 0.3051 -0.4776 0.8239
vn -0.3161 -0.1837 0.9308
vn -0.0950 -0.1789 0.9793
vn 0.0976 -0.1742 0.9799
vn 0.3279 -0.1598 0.9311
vn -0.3161 0.1837 0.9308
vn -0.0950 0.1789 0.9793
vn 0.0976 0.1742 0.9799
vn 0.3279 0.1598 0.9311
vn -0.2530 0.5435 0.8004
vn -0.0784 0.5408 0.8375
vn 0.0910 0.5264 0.8453
vn 0.3051 0.4776 0.8239
vn 0.4846 -0.6185 0.6185
vn 0.6282 -0.7438 0.2285
vn 0.6479 -0.7348 -0.2005
vn 0.5904 -0.5707 -0.5707
vn 0.6282 -0.2285 0.7438
vn 0.9037 -0.3027 0.3027
vn 0.9083 -0.2958 -0.2958
vn 0.6479 -0.2005 -0.7348
vn 0.6282 0.2285 0.7438
vn 0.9037 0.3027 0.3027
vn 0.9083 0.2958 -0.2958
vn 0.6479 0.2005 -0.7348
vn 0.4846 0.6185 0.6185
vn 0.6282 0.7438 0.2285
vn 0.6479 0.7348 -0.2005
vn 0.5904 0.5707 -0.5707
vn 0.2530 -0.8004 0.5435
vn 0.0784 -0.8375 0.5408
vn -0.0910 -0.8453 0.5264
vn -0.3051 -0.8239 0.4776
vn 0.3161 -0.9308 0.1837
vn 0.0950 -0.9793 0.1789
vn -0.0976 -0.9799 0.1742
vn -0.3279 -0.9311 0.1598
vn 0.3161 -0.9308 -0.1837
vn 0.0950 -0.9793 -0.1789
vn -0.0976 -0.9799 -0.1742
vn -0.3279 -0.9311 -0.1598
vn 0.2530 -0.8004 -0.5435
vn 0.0784 -0.8375 -0.5408
vn -0.0910 -0.8453 -0.5264
vn -0.3051 -0.8239 -0.4776
vn 0.2530 0.8004 -0.5435
vn 0.0784 0.8375 -0.5408
vn -0.0910 0.8453 -0.5264
vn -0.3051 0.8239 -0.4776
vn 0.3161 0.9308 -0.1837
vn 0.0950 0.9793 -0.1789
vn -0.0976 0.9799 -0.1742
vn -0.3279 0.9311 -0.1598
vn 0.3161 0.9308 0.1837
vn 0.0950 0.9793 0.1789
vn -0.0976 0.9799 0.1742
vn -0.3279 0.9311 0.1598
vn 0.2530 0.8004 0.5435
vn 0.0784 0.8375 0.5408
vn -0.0910 0.8453 0.5264
vn -0.3051 0.8239 0.4776
s 0
f 1//1 6//1 5//1
f 2//2 7//2 6//2
f 4//3 7//3 3//3
f 17//4 8//4 4//4
f 5//5 10//5 9//5
f 6//6 11//6 10//6
f 8//7 11//7 7//7
f 21//8 12//8 8//8
f 10//9 13//9 9//9
f 11//10 14//10 10//10
f 11//11 16//11 15//11
f 12//12 29//12 16//12
f 14//13 74//13 13//13
f 15//14 75//14 14//14
f 15//15 77//15 76//15
f 16//16 78//16 77//16
f 18//17 21//17 17//17
f 19//18 22//18 18//18
f 19//19 24//19 23//19
f 20//20 37//20 24//20
f 22//21 25//21 21//21
f 23//22 26//22 22//22
f 23//23 28//23 27//23
f 24//24 41//24 28//24
f 25//25 30//25 29//25
f 26//26 31//26 30//26
f 28//27 31//27 27//27
f 41//28 32//28 28//28
f 29//29 83//29 78//29
f 30//30 88//30 83//30
f 32//31 88//31 31//31
f 45//32 93//32 32//32
f 33//33 38//33 37//33
f 34//34 39//34 38//34
f 36//35 39//35 35//35
f 49//36 40//36 36//36
f 37//37 42//37 41//37
f 38//38 43//38 42//38
f 40//39 43//39 39//39
f 53//40 44//40 40//40
f 42//41 45//41 41//41
f 43//42 46//42 42//42
f 43//43 48//43 47//43
f 44//44 61//44 48//44
f 46//45 98//45 45//45
f 47//46 97//46 46//46
f 47//47 95//47 96//47
f 48//48 94//48 95//48
f 50//49 53//49 49//49
f 51//50 54//50 50//50
f 51//51 56//51 55//51
f 52//52 5//52 56//52
f 54//53 57//53 53//53
f 55//54 58//54 54//54
f 55//55 60//55 59//55
f 56//56 9//56 60//56
f 57//57 62//57 61//57
f 58//58 63//58 62//58
f 60//59 63//59 59//59
f 9//60 64//60 60//60
f 61//61 89//61 94//61
f 62//62 84//62 89//62
f 64//63 84//63 63//63
f 13//64 79//64 64//64
f 49//65 65//65 50//65
f 36//66 66//66 65//66
f 34//67 66//67 35//67
f 33//68 67//68 34//68
f 50//69 68//69 51//69
f 65//70 69//70 68//70
f 67//71 69//71 66//71
f 20//72 70//72 67//72
f 68//73 52//73 51//73
f 69//74 71//74 68//74
f 69//75 73//75 72//75
f 70//76 18//76 73//76
f 71//77 1//77 52//77
f 72//78 2//78 71//78
f 72//79 4//79 3//79
f 73//80 17//80 4//80
f 74//81 80//81 79//81
f 75//82 81//82 80//82
f 77//83 81//83 76//83
f 78//84 82//84 77//84
f 79//85 85//85 84//85
f 80//86 86//86 85//86
f 82//87 86//87 81//87
f 83//88 87//88 82//88
f 85//89 89//89 84//89
f 86//90 90//90 85//90
f 86//91 92//91 91//91
f 87//92 93//92 92//92
f 90//93 94//93 89//93
f 91//94 95//94 90//94
f 91//95 97//95 96//95
f 92//96 98//96 97//96
f 1//97 2//97 6//97
f 2//98 3//98 7//98
f 4//99 8//99 7//99
f 17//100 21//100 8//100
f 5//101 6//101 10//101
f 6//102 7//102 11//102
f 8//103 12//103 11//103
f 21//104 25//104 12//104
f 10//105 14//105 13//105
f 11//106 15//106 14//106
f 11//107 12//107 16//107
f 12//108 25//108 29//108
f 14//109 75//109 74//109
f 15//110 76//110 75//110
f 15//111 16//111 77//111
f 16//112 29//112 78//112
f 18//113 22//113 21//113
f 19//114 23//114 22//114
f 19//115 20//115 24//115
f 20//116 33//116 37//116
f 22//117 26//117 25//117
f 23//118 27//118 26//118
f 23//119 24//119 28//119
f 24//120 37//120 41//120
f 25//121 26//121 30//121
f 26//122 27//122 31//122
f 28//123 32//123 31//123
f 41//124 45//124 32//124
f 29//125 30//125 83//125
f 30//126 31//126 88//126
f 32//127 93//127 88//127
f 45//128 98//128 93//128
f 33//129 34//129 38//129
f 34//130 35//130 39//130
f 36//131 40//131 39//131
f 49//132 53//132 40//132
f 37//133 38//133 42//133
f 38//134 39//134 43//134
f 40//135 44//135 43//135
f 53//136 57//136 44//136
f 42//137 46//137 45//137
f 43//138 47//138 46//138
f 43//139 44//139 48//139
f 44//140 57//140 61//140
f 46//141 97//141 98//141
f 47//142 96//142 97//142
f 47//143 48//143 95//143
f 48//144 61//144 94//144
f 50//145 54//145 53//145
f 51//146 55//146 54//146
f 51//147 52//147 56//147
f 52//148 1//148 5//148
f 54//149 58//149 57//149
f 55//150 59//150 58//150
f 55//151 56//151 60//151
f 56//152 5//152 9//152
f 57//153 58//153 62//153
f 58//154 59//154 63//154
f 60//155 64//155 63//155
f 9//156 13//156 64//156
f 61//157 62//157 89//157
f 62//158 63//158 84//158
f 64//159 79//159 84//159
f 13//160 74//160 79//160
f 49//161 36//161 65//161
f 36//162 35//162 66//162
f 34//163 67//163 66//163
f 33//164 20//164 67//164
f 50//165 65//165 68//165
f 65//166 66//166 69//166
f 67//167 70//167 69//167
f 20//168 19//168 70//168
f 68//169 71//169 52//169
f 69//170 72//170 71//170
f 69//171 70//171 73//171
f 70//172 19//172 18//172
f 71//173 2//173 1//173
f 72//174 3//174 2//174
f 72//175 73//175 4//175
f 73//176 18//176 17//176
f 74//177 75//177 80//177
f 75//178 76//178 81//178
f 77//179 82//179 81//179
f 78//180 83//180 82//180
f 79//181 80//181 85//181
f 80//182 81//182 86//182
f 82//183 87//183 86//183
f 83//184 88//184 87//184
f 85//185 90//185 89//185
f 86//186 91//186 90//186
f 86//187 87//187 92//187
f 87//188 88//188 93//188
f 90//189 95//189 94//189
f 91//190 96//190 95//190
f 91//191 92//191 97//191
f 92//192 93//192 98//192
