# Blender 3.3.0
# www.blender.org
mtllib cattail_leaf.mtl
o Roundcube
v 0.041896 0.379074 -0.036521
v 0.020948 0.083550 -0.042825
v -0.000000 -0.005723 -0.044729
v -0.020948 0.083550 -0.042825
v 0.049128 1.235147 -0.042825
v 0.024564 1.087386 -0.055538
v -0.000000 1.042749 -0.059171
v -0.024564 1.087386 -0.055538
v 0.051312 2.091221 -0.044729
v 0.025656 2.091221 -0.059171
v -0.000000 2.091221 -0.063257
v -0.025656 2.091221 -0.059171
v 0.049128 2.947295 -0.042825
v 0.024564 3.095057 -0.055538
v -0.000000 3.139693 -0.059171
v -0.024564 3.095057 -0.055538
v -0.041896 0.379074 -0.036521
v -0.049128 0.083550 -0.018261
v -0.051312 -0.005723 -0.000000
v -0.049128 0.083550 0.018261
v -0.049128 1.235147 -0.042825
v -0.063711 1.087386 -0.021413
v -0.067880 1.042749 -0.000000
v -0.063711 1.087386 0.021413
v -0.051312 2.091221 -0.044729
v -0.067880 2.091221 -0.022365
v -0.072566 2.091221 -0.000000
v -0.067880 2.091221 0.022365
v -0.049128 2.947295 -0.042825
v -0.063711 3.095057 -0.021413
v -0.067880 3.139693 -0.000000
v -0.063711 3.095057 0.021413
v -0.041896 0.379074 0.036521
v -0.020948 0.083550 0.042825
v -0.000000 -0.005723 0.044729
v 0.020948 0.083550 0.042825
v -0.049128 1.235147 0.042825
v -0.024564 1.087386 0.055538
v -0.000000 1.042749 0.059171
v 0.024564 1.087386 0.055538
v -0.036706 2.091221 0.052585
v -0.040262 2.091221 0.051316
v -0.000000 2.091221 0.063257
v 0.025656 2.091221 0.059171
v -0.049128 2.947295 0.042825
v -0.024564 3.095057 0.055538
v -0.000000 3.139693 0.059171
v 0.024564 3.095057 0.055538
v 0.041896 0.379074 0.036521
v 0.049128 0.083550 0.018261
v 0.051312 -0.005723 -0.000000
v 0.049128 0.083550 -0.018261
v 0.049128 1.235147 0.042825
v 0.063711 1.087386 0.021413
v 0.067880 1.042749 -0.000000
v 0.063711 1.087386 -0.021413
v 0.051312 2.091221 0.044729
v 0.067880 2.091221 0.022365
v 0.072566 2.091221 -0.000000
v 0.067880 2.091221 -0.022365
v 0.049128 2.947295 0.042825
v 0.063711 3.095057 0.021413
v 0.067880 3.139693 -0.000000
v 0.063711 3.095057 -0.021413
v 0.041896 3.803369 -0.036521
v 0.020948 4.098893 -0.042825
v -0.000000 4.188165 -0.044729
v -0.020948 4.098893 -0.042825
v -0.041896 3.803369 -0.036521
v 0.049128 4.098893 -0.018261
v 0.024564 4.694869 -0.021413
v -0.000000 4.865218 -0.022365
v -0.024564 4.694869 -0.021413
v -0.049128 4.098893 -0.018261
v 0.051312 4.188165 -0.000000
v 0.025656 4.865218 -0.000000
v -0.000000 5.056748 -0.000000
v -0.025656 4.865218 -0.000000
v -0.051312 4.188165 -0.000000
v 0.049128 4.098893 0.018261
v 0.024564 4.694869 0.021413
v -0.000000 4.865218 0.022365
v -0.024564 4.694869 0.021413
v -0.049128 4.098893 0.018261
v 0.041896 3.803369 0.036521
v 0.020948 4.098893 0.042825
v -0.000000 4.188165 0.044729
v -0.020948 4.098893 0.042825
v -0.041896 3.803369 0.036521
vn 0.4809 -0.0118 -0.8767
vn 0.1594 -0.0133 -0.9871
vn -0.1594 -0.0133 -0.9871
vn -0.4809 -0.0118 -0.8767
vn 0.4835 -0.0035 -0.8753
vn 0.1552 -0.0038 -0.9879
vn -0.1552 -0.0038 -0.9879
vn -0.4835 -0.0035 -0.8753
vn 0.4835 0.0035 -0.8753
vn 0.1552 0.0038 -0.9879
vn -0.1552 0.0038 -0.9879
vn -0.4835 0.0035 -0.8753
vn 0.4809 0.0118 -0.8767
vn 0.1594 0.0133 -0.9871
vn -0.1594 0.0133 -0.9871
vn -0.4809 0.0118 -0.8767
vn -0.8107 -0.0125 -0.5853
vn -0.9781 -0.0152 -0.2078
vn -0.9781 -0.0152 0.2078
vn -0.8107 -0.0125 0.5853
vn -0.8089 -0.0037 -0.5880
vn -0.9793 -0.0043 -0.2025
vn -0.9793 -0.0043 0.2025
vn -0.7477 -0.0005 0.6641
vn -0.8089 0.0037 -0.5880
vn -0.9793 0.0043 -0.2025
vn -0.9793 0.0043 0.2025
vn -0.7477 0.0005 0.6641
vn -0.8107 0.0125 -0.5853
vn -0.9781 0.0152 -0.2078
vn -0.9781 0.0152 0.2078
vn -0.8107 0.0125 0.5853
vn -0.4809 -0.0118 0.8767
vn -0.1594 -0.0133 0.9871
vn 0.1594 -0.0133 0.9871
vn 0.4809 -0.0118 0.8767
vn -0.4970 -0.0035 0.8677
vn -0.2347 -0.0017 0.9721
vn 0.1552 -0.0038 0.9879
vn 0.4835 -0.0035 0.8753
vn -0.4970 0.0035 0.8677
vn -0.2347 0.0017 0.9721
vn 0.1552 0.0038 0.9879
vn 0.4835 0.0035 0.8753
vn -0.4809 0.0118 0.8767
vn -0.1594 0.0133 0.9871
vn 0.1594 0.0133 0.9871
vn 0.4809 0.0118 0.8767
vn 0.8107 -0.0125 0.5853
vn 0.9781 -0.0152 0.2078
vn 0.9781 -0.0152 -0.2078
vn 0.8107 -0.0125 -0.5853
vn 0.8089 -0.0037 0.5880
vn 0.9793 -0.0043 0.2025
vn 0.9793 -0.0043 -0.2025
vn 0.8089 -0.0037 -0.5880
vn 0.8089 0.0037 0.5880
vn 0.9793 0.0043 0.2025
vn 0.9793 0.0043 -0.2025
vn 0.8089 0.0037 -0.5880
vn 0.8107 0.0125 0.5853
vn 0.9781 0.0152 0.2078
vn 0.9781 0.0152 -0.2078
vn 0.8107 0.0125 -0.5853
vn -0.0000 1.0000 -0.0000
vn 0.6569 0.0255 -0.7536
vn 0.2468 0.0326 -0.9685
vn -0.2468 0.0326 -0.9685
vn -0.6569 0.0255 -0.7536
vn 0.9475 0.0366 -0.3177
vn 0.6545 0.0889 -0.7508
vn -0.6545 0.0889 -0.7508
vn -0.9475 0.0366 -0.3177
vn 0.9475 0.0366 0.3177
vn 0.6545 0.0889 0.7508
vn -0.6545 0.0889 0.7508
vn -0.9475 0.0366 0.3177
vn 0.6569 0.0255 0.7536
vn 0.2468 0.0326 0.9685
vn -0.2468 0.0326 0.9685
vn -0.6569 0.0255 0.7536
vn 0.6568 -0.0305 -0.7535
vn 0.6509 -0.1368 -0.7467
vn 0.6568 -0.0305 0.7535
vn 0.6509 -0.1368 0.7467
vn -0.6568 -0.0305 0.7535
vn -0.6509 -0.1368 0.7467
vn -0.6568 -0.0305 -0.7535
vn -0.6509 -0.1368 -0.7467
s 0
f 1//1 2//1 6//1 5//1
f 2//2 3//2 7//2 6//2
f 3//3 4//3 8//3 7//3
f 4//4 17//4 21//4 8//4
f 5//5 6//5 10//5 9//5
f 6//6 7//6 11//6 10//6
f 7//7 8//7 12//7 11//7
f 8//8 21//8 25//8 12//8
f 9//9 10//9 14//9 13//9
f 10//10 11//10 15//10 14//10
f 11//11 12//11 16//11 15//11
f 12//12 25//12 29//12 16//12
f 13//13 14//13 66//13 65//13
f 14//14 15//14 67//14 66//14
f 15//15 16//15 68//15 67//15
f 16//16 29//16 69//16 68//16
f 17//17 18//17 22//17 21//17
f 18//18 19//18 23//18 22//18
f 19//19 20//19 24//19 23//19
f 20//20 33//20 37//20 24//20
f 21//21 22//21 26//21 25//21
f 22//22 23//22 27//22 26//22
f 23//23 24//23 28//23 27//23
f 24//24 37//24 41//24 28//24
f 25//25 26//25 30//25 29//25
f 26//26 27//26 31//26 30//26
f 27//27 28//27 32//27 31//27
f 28//28 41//28 45//28 32//28
f 29//29 30//29 74//29 69//29
f 30//30 31//30 79//30 74//30
f 31//31 32//31 84//31 79//31
f 32//32 45//32 89//32 84//32
f 33//33 34//33 38//33 37//33
f 34//34 35//34 39//34 38//34
f 35//35 36//35 40//35 39//35
f 36//36 49//36 53//36 40//36
f 37//37 38//37 42//37 41//37
f 38//38 39//38 43//38 42//38
f 39//39 40//39 44//39 43//39
f 40//40 53//40 57//40 44//40
f 41//41 42//41 46//41 45//41
f 42//42 43//42 47//42 46//42
f 43//43 44//43 48//43 47//43
f 44//44 57//44 61//44 48//44
f 45//45 46//45 88//45 89//45
f 46//46 47//46 87//46 88//46
f 47//47 48//47 86//47 87//47
f 48//48 61//48 85//48 86//48
f 49//49 50//49 54//49 53//49
f 50//50 51//50 55//50 54//50
f 51//51 52//51 56//51 55//51
f 52//52 1//52 5//52 56//52
f 53//53 54//53 58//53 57//53
f 54//54 55//54 59//54 58//54
f 55//55 56//55 60//55 59//55
f 56//56 5//56 9//56 60//56
f 57//57 58//57 62//57 61//57
f 58//58 59//58 63//58 62//58
f 59//59 60//59 64//59 63//59
f 60//60 9//60 13//60 64//60
f 61//61 62//61 80//61 85//61
f 62//62 63//62 75//62 80//62
f 63//63 64//63 70//63 75//63
f 64//64 13//64 65//64 70//64
f 35//65 51//65 3//65 19//65
f 65//66 66//66 71//66 70//66
f 66//67 67//67 72//67 71//67
f 67//68 68//68 73//68 72//68
f 68//69 69//69 74//69 73//69
f 70//70 71//70 76//70 75//70
f 71//71 72//71 77//71 76//71
f 72//72 73//72 78//72 77//72
f 73//73 74//73 79//73 78//73
f 75//74 76//74 81//74 80//74
f 76//75 77//75 82//75 81//75
f 77//76 78//76 83//76 82//76
f 78//77 79//77 84//77 83//77
f 80//78 81//78 86//78 85//78
f 81//79 82//79 87//79 86//79
f 82//80 83//80 88//80 87//80
f 83//81 84//81 89//81 88//81
f 2//82 1//82 52//82
f 51//83 3//83 2//83 52//83
f 49//84 36//84 50//84
f 35//85 51//85 50//85 36//85
f 33//86 20//86 34//86
f 19//87 35//87 34//87 20//87
f 17//88 4//88 18//88
f 3//89 19//89 18//89 4//89
