# Blender 3.3.0
# www.blender.org
mtllib cattail.mtl
o Roundcube
v 0.041896 0.379074 -0.036521
v 0.020948 0.083550 -0.042825
v -0.000000 -0.005723 -0.044729
v -0.020948 0.083550 -0.042825
v 0.049128 1.235147 -0.042825
v 0.024564 1.087386 -0.055538
v -0.000000 1.042749 -0.059171
v -0.024564 1.087386 -0.055538
v 0.051312 2.091221 -0.044729
v 0.025656 2.091221 -0.059171
v -0.000000 2.091221 -0.063257
v -0.025656 2.091221 -0.059171
v 0.049128 2.947295 -0.042825
v 0.024564 3.095057 -0.055538
v -0.000000 3.139693 -0.059171
v -0.024564 3.095057 -0.055538
v -0.041896 0.379074 -0.036521
v -0.049128 0.083550 -0.018261
v -0.051312 -0.005723 -0.000000
v -0.049128 0.083550 0.018261
v -0.049128 1.235147 -0.042825
v -0.063711 1.087386 -0.021413
v -0.067880 1.042749 -0.000000
v -0.063711 1.087386 0.021413
v -0.051312 2.091221 -0.044729
v -0.067880 2.091221 -0.022365
v -0.072566 2.091221 -0.000000
v -0.067880 2.091221 0.022365
v -0.049128 2.947295 -0.042825
v -0.063711 3.095057 -0.021413
v -0.067880 3.139693 -0.000000
v -0.063711 3.095057 0.021413
v -0.041896 0.379074 0.036521
v -0.020948 0.083550 0.042825
v -0.000000 -0.005723 0.044729
v 0.020948 0.083550 0.042825
v -0.049128 1.235147 0.042825
v -0.024564 1.087386 0.055538
v -0.000000 1.042749 0.059171
v 0.024564 1.087386 0.055538
v -0.036706 2.091221 0.052585
v -0.040262 2.091221 0.051316
v -0.000000 2.091221 0.063257
v 0.025656 2.091221 0.059171
v -0.049128 2.947295 0.042825
v -0.024564 3.095057 0.055538
v -0.000000 3.139693 0.059171
v 0.024564 3.095057 0.055538
v 0.041896 0.379074 0.036521
v 0.049128 0.083550 0.018261
v 0.051312 -0.005723 -0.000000
v 0.049128 0.083550 -0.018261
v 0.049128 1.235147 0.042825
v 0.063711 1.087386 0.021413
v 0.067880 1.042749 -0.000000
v 0.063711 1.087386 -0.021413
v 0.051312 2.091221 0.044729
v 0.067880 2.091221 0.022365
v 0.072566 2.091221 -0.000000
v 0.067880 2.091221 -0.022365
v 0.049128 2.947295 0.042825
v 0.063711 3.095057 0.021413
v 0.067880 3.139693 -0.000000
v 0.063711 3.095057 -0.021413
v 0.041896 3.803369 -0.036521
v 0.020948 4.098893 -0.042825
v -0.000000 4.188165 -0.044729
v -0.020948 4.098893 -0.042825
v -0.041896 3.803369 -0.036521
v 0.049128 4.098893 -0.018261
v 0.024564 4.694869 -0.021413
v -0.000000 4.865218 -0.022365
v -0.024564 4.694869 -0.021413
v -0.049128 4.098893 -0.018261
v 0.051312 4.188165 -0.000000
v 0.025656 4.865218 -0.000000
v -0.000000 5.056748 -0.000000
v -0.025656 4.865218 -0.000000
v -0.051312 4.188165 -0.000000
v 0.049128 4.098893 0.018261
v 0.024564 4.694869 0.021413
v -0.000000 4.865218 0.022365
v -0.024564 4.694869 0.021413
v -0.049128 4.098893 0.018261
v 0.041896 3.803369 0.036521
v 0.020948 4.098893 0.042825
v -0.000000 4.188165 0.044729
v -0.020948 4.098893 0.042825
v -0.041896 3.803369 0.036521
vn 0.4809 -0.0118 -0.8767
vn 0.1594 -0.0133 -0.9871
vn -0.1594 -0.0133 -0.9871
vn -0.4809 -0.0118 -0.8767
vn 0.4835 -0.0035 -0.8753
vn 0.1552 -0.0038 -0.9879
vn -0.1552 -0.0038 -0.9879
vn -0.4835 -0.0035 -0.8753
vn 0.4835 0.0035 -0.8753
vn 0.1552 0.0038 -0.9879
vn -0.1552 0.0038 -0.9879
vn -0.4835 0.0035 -0.8753
vn 0.4809 0.0118 -0.8767
vn 0.1594 0.0133 -0.9871
vn -0.1594 0.0133 -0.9871
vn -0.4809 0.0118 -0.8767
vn -0.8107 -0.0125 -0.5853
vn -0.9781 -0.0152 -0.2078
vn -0.9781 -0.0152 0.2078
vn -0.8107 -0.0125 0.5853
vn -0.8089 -0.0037 -0.5880
vn -0.9793 -0.0043 -0.2025
vn -0.9793 -0.0043 0.2025
vn -0.7477 -0.0005 0.6641
vn -0.8089 0.0037 -0.5880
vn -0.9793 0.0043 -0.2025
vn -0.9793 0.0043 0.2025
vn -0.7477 0.0005 0.6641
vn -0.8107 0.0125 -0.5853
vn -0.9781 0.0152 -0.2078
vn -0.9781 0.0152 0.2078
vn -0.8107 0.0125 0.5853
vn -0.4809 -0.0118 0.8767
vn -0.1594 -0.0133 0.9871
vn 0.1594 -0.0133 0.9871
vn 0.4809 -0.0118 0.8767
vn -0.4970 -0.0035 0.8677
vn -0.2347 -0.0017 0.9721
vn 0.1552 -0.0038 0.9879
vn 0.4835 -0.0035 0.8753
vn -0.4970 0.0035 0.8677
vn -0.2347 0.0017 0.9721
vn 0.1552 0.0038 0.9879
vn 0.4835 0.0035 0.8753
vn -0.4809 0.0118 0.8767
vn -0.1594 0.0133 0.9871
vn 0.1594 0.0133 0.9871
vn 0.4809 0.0118 0.8767
vn 0.8107 -0.0125 0.5853
vn 0.9781 -0.0152 0.2078
vn 0.9781 -0.0152 -0.2078
vn 0.8107 -0.0125 -0.5853
vn 0.8089 -0.0037 0.5880
vn 0.9793 -0.0043 0.2025
vn 0.9793 -0.0043 -0.2025
vn 0.8089 -0.0037 -0.5880
vn 0.8089 0.0037 0.5880
vn 0.9793 0.0043 0.2025
vn 0.9793 0.0043 -0.2025
vn 0.8089 0.0037 -0.5880
vn 0.8107 0.0125 0.5853
vn 0.9781 0.0152 0.2078
vn 0.9781 0.0152 -0.2078
vn 0.8107 0.0125 -0.5853
vn -0.0000 1.0000 -0.0000
vn 0.6569 0.0255 -0.7536
vn 0.2468 0.0326 -0.9685
vn -0.2468 0.0326 -0.9685
vn -0.6569 0.0255 -0.7536
vn 0.9475 0.0366 -0.3177
vn 0.6545 0.0889 -0.7508
vn -0.6545 0.0889 -0.7508
vn -0.9475 0.0366 -0.3177
vn 0.9475 0.0366 0.3177
vn 0.6545 0.0889 0.7508
vn -0.6545 0.0889 0.7508
vn -0.9475 0.0366 0.3177
vn 0.6569 0.0255 0.7536
vn 0.2468 0.0326 0.9685
vn -0.2468 0.0326 0.9685
vn -0.6569 0.0255 0.7536
vn 0.6568 -0.0305 -0.7535
vn 0.6509 -0.1368 -0.7467
vn 0.6568 -0.0305 0.7535
vn 0.6509 -0.1368 0.7467
vn -0.6568 -0.0305 0.7535
vn -0.6509 -0.1368 0.7467
vn -0.6568 -0.0305 -0.7535
vn -0.6509 -0.1368 -0.7467
s 0
f 1//1 2//1 6//1 5//1
f 2//2 3//2 7//2 6//2
f 3//3 4//3 8//3 7//3
f 4//4 17//4 21//4 8//4
f 5//5 6//5 10//5 9//5
f 6//6 7//6 11//6 10//6
f 7//7 8//7 12//7 11//7
f 8//8 21//8 25//8 12//8
f 9//9 10//9 14//9 13//9
f 10//10 11//10 15//10 14//10
f 11//11 12//11 16//11 15//11
f 12//12 25//12 29//12 16//12
f 13//13 14//13 66//13 65//13
f 14//14 15//14 67//14 66//14
f 15//15 16//15 68//15 67//15
f 16//16 29//16 69//16 68//16
f 17//17 18//17 22//17 21//17
f 18//18 19//18 23//18 22//18
f 19//19 20//19 24//19 23//19
f 20//20 33//20 37//20 24//20
f 21//21 22//21 26//21 25//21
f 22//22 23//22 27//22 26//22
f 23//23 24//23 28//23 27//23
f 24//24 37//24 41//24 28//24
f 25//25 26//25 30//25 29//25
f 26//26 27//26 31//26 30//26
f 27//27 28//27 32//27 31//27
f 28//28 41//28 45//28 32//28
f 29//29 30//29 74//29 69//29
f 30//30 31//30 79//30 74//30
f 31//31 32//31 84//31 79//31
f 32//32 45//32 89//32 84//32
f 33//33 34//33 38//33 37//33
f 34//34 35//34 39//34 38//34
f 35//35 36//35 40//35 39//35
f 36//36 49//36 53//36 40//36
f 37//37 38//37 42//37 41//37
f 38//38 39//38 43//38 42//38
f 39//39 40//39 44//39 43//39
f 40//40 53//40 57//40 44//40
f 41//41 42//41 46//41 45//41
f 42//42 43//42 47//42 46//42
f 43//43 44//43 48//43 47//43
f 44//44 57//44 61//44 48//44
f 45//45 46//45 88//45 89//45
f 46//46 47//46 87//46 88//46
f 47//47 48//47 86//47 87//47
f 48//48 61//48 85//48 86//48
f 49//49 50//49 54//49 53//49
f 50//50 51//50 55//50 54//50
f 51//51 52//51 56//51 55//51
f 52//52 1//52 5//52 56//52
f 53//53 54//53 58//53 57//53
f 54//54 55//54 59//54 58//54
f 55//55 56//55 60//55 59//55
f 56//56 5//56 9//56 60//56
f 57//57 58//57 62//57 61//57
f 58//58 59//58 63//58 62//58
f 59//59 60//59 64//59 63//59
f 60//60 9//60 13//60 64//60
f 61//61 62//61 80//61 85//61
f 62//62 63//62 75//62 80//62
f 63//63 64//63 70//63 75//63
f 64//64 13//64 65//64 70//64
f 35//65 51//65 3//65 19//65
f 65//66 66//66 71//66 70//66
f 66//67 67//67 72//67 71//67
f 67//68 68//68 73//68 72//68
f 68//69 69//69 74//69 73//69
f 70//70 71//70 76//70 75//70
f 71//71 72//71 77//71 76//71
f 72//72 73//72 78//72 77//72
f 73//73 74//73 79//73 78//73
f 75//74 76//74 81//74 80//74
f 76//75 77//75 82//75 81//75
f 77//76 78//76 83//76 82//76
f 78//77 79//77 84//77 83//77
f 80//78 81//78 86//78 85//78
f 81//79 82//79 87//79 86//79
f 82//80 83//80 88//80 87//80
f 83//81 84//81 89//81 88//81
f 2//82 1//82 52//82
f 51//83 3//83 2//83 52//83
f 49//84 36//84 50//84
f 35//85 51//85 50//85 36//85
f 33//86 20//86 34//86
f 19//87 35//87 34//87 20//87
f 17//88 4//88 18//88
f 3//89 19//89 18//89 4//89
o Roundcube.001
v 0.081435 4.784264 -0.081435
v 0.040718 4.714611 -0.095491
v -0.000000 4.693570 -0.099737
v -0.040718 4.714611 -0.095491
v 0.095491 4.986034 -0.095491
v 0.047746 4.951208 -0.123838
v -0.000000 4.940688 -0.131940
v -0.047746 4.951208 -0.123838
v 0.099737 5.187805 -0.099737
v 0.049869 5.187805 -0.131940
v -0.000000 5.187805 -0.141050
v -0.049869 5.187805 -0.131940
v 0.095491 5.389575 -0.095491
v 0.047746 5.424402 -0.123838
v -0.000000 5.434923 -0.131940
v -0.047746 5.424402 -0.123838
v -0.081435 4.784264 -0.081435
v -0.095491 4.714611 -0.040718
v -0.099737 4.693570 -0.000000
v -0.095491 4.714611 0.040718
v -0.095491 4.986034 -0.095491
v -0.123838 4.951208 -0.047746
v -0.131940 4.940688 -0.000000
v -0.123838 4.951208 0.047746
v -0.099737 5.187805 -0.099737
v -0.131940 5.187805 -0.049869
v -0.141050 5.187805 -0.000000
v -0.131940 5.187805 0.049869
v -0.095491 5.389575 -0.095491
v -0.123838 5.424402 -0.047746
v -0.131940 5.434923 -0.000000
v -0.123838 5.424402 0.047746
v -0.081435 4.784264 0.081435
v -0.040718 4.714611 0.095491
v -0.000000 4.693570 0.099737
v 0.040718 4.714611 0.095491
v -0.095491 4.986034 0.095491
v -0.047746 4.951208 0.123838
v -0.000000 4.940688 0.131940
v 0.047746 4.951208 0.123838
v -0.099737 5.187805 0.099737
v -0.049869 5.187805 0.131940
v -0.000000 5.187805 0.141050
v 0.049869 5.187805 0.131940
v -0.095491 5.389575 0.095491
v -0.047746 5.424402 0.123838
v -0.000000 5.434923 0.131940
v 0.047746 5.424402 0.123838
v 0.081435 4.784264 0.081435
v 0.095491 4.714611 0.040718
v 0.099737 4.693570 -0.000000
v 0.095491 4.714611 -0.040718
v 0.095491 4.986034 0.095491
v 0.123838 4.951208 0.047746
v 0.131940 4.940688 -0.000000
v 0.123838 4.951208 -0.047746
v 0.099737 5.187805 0.099737
v 0.131940 5.187805 0.049869
v 0.141050 5.187805 -0.000000
v 0.131940 5.187805 -0.049869
v 0.095491 5.389575 0.095491
v 0.123838 5.424402 0.047746
v 0.131940 5.434923 -0.000000
v 0.123838 5.424402 -0.047746
v 0.047746 4.574143 0.047746
v -0.000000 4.533993 0.049869
v -0.047746 4.574143 0.047746
v 0.049869 4.533993 -0.000000
v -0.000000 4.488851 -0.000000
v -0.049869 4.533993 -0.000000
v 0.047746 4.574143 -0.047746
v -0.000000 4.533993 -0.049869
v -0.047746 4.574143 -0.047746
v 0.081435 5.591346 -0.081435
v 0.040718 5.660999 -0.095491
v -0.000000 5.682039 -0.099737
v -0.040718 5.660999 -0.095491
v -0.081435 5.591346 -0.081435
v 0.095491 5.660999 -0.040718
v 0.047746 5.801466 -0.047746
v -0.000000 5.841616 -0.049869
v -0.047746 5.801466 -0.047746
v -0.095491 5.660999 -0.040718
v 0.099737 5.682039 -0.000000
v 0.049869 5.841616 -0.000000
v -0.000000 5.886759 -0.000000
v -0.049869 5.841616 -0.000000
v -0.099737 5.682039 -0.000000
v 0.095491 5.660999 0.040718
v 0.047746 5.801466 0.047746
v -0.000000 5.841616 0.049869
v -0.047746 5.801466 0.047746
v -0.095491 5.660999 0.040718
v 0.081435 5.591346 0.081435
v 0.040718 5.660999 0.095491
v -0.000000 5.682039 0.099737
v -0.040718 5.660999 0.095491
v -0.081435 5.591346 0.081435
vn 0.5296 -0.1069 -0.8415
vn 0.1807 -0.1247 -0.9756
vn -0.1807 -0.1247 -0.9756
vn -0.5296 -0.1069 -0.8415
vn 0.5350 -0.0316 -0.8443
vn 0.1773 -0.0358 -0.9835
vn -0.1773 -0.0358 -0.9835
vn -0.5350 -0.0316 -0.8443
vn 0.5350 0.0316 -0.8443
vn 0.1773 0.0358 -0.9835
vn -0.1773 0.0358 -0.9835
vn -0.5350 0.0316 -0.8443
vn 0.5296 0.1069 -0.8415
vn 0.1807 0.1247 -0.9756
vn -0.1807 0.1247 -0.9756
vn -0.5296 0.1069 -0.8415
vn -0.8415 -0.1069 -0.5296
vn -0.9756 -0.1247 -0.1807
vn -0.9756 -0.1247 0.1807
vn -0.8415 -0.1069 0.5296
vn -0.8443 -0.0316 -0.5350
vn -0.9835 -0.0358 -0.1773
vn -0.9835 -0.0358 0.1773
vn -0.8443 -0.0316 0.5350
vn -0.8443 0.0316 -0.5350
vn -0.9835 0.0358 -0.1773
vn -0.9835 0.0358 0.1773
vn -0.8443 0.0316 0.5350
vn -0.8415 0.1069 -0.5296
vn -0.9756 0.1247 -0.1807
vn -0.9756 0.1247 0.1807
vn -0.8415 0.1069 0.5296
vn -0.5296 -0.1069 0.8415
vn -0.1807 -0.1247 0.9756
vn 0.1807 -0.1247 0.9756
vn 0.5296 -0.1069 0.8415
vn -0.5350 -0.0316 0.8443
vn -0.1773 -0.0358 0.9835
vn 0.1773 -0.0358 0.9835
vn 0.5350 -0.0316 0.8443
vn -0.5350 0.0316 0.8443
vn -0.1773 0.0358 0.9835
vn 0.1773 0.0358 0.9835
vn 0.5350 0.0316 0.8443
vn -0.5296 0.1069 0.8415
vn -0.1807 0.1247 0.9756
vn 0.1807 0.1247 0.9756
vn 0.5296 0.1069 0.8415
vn 0.8415 -0.1069 0.5296
vn 0.9756 -0.1247 0.1807
vn 0.9756 -0.1247 -0.1807
vn 0.8415 -0.1069 -0.5296
vn 0.8443 -0.0316 0.5350
vn 0.9835 -0.0358 0.1773
vn 0.9835 -0.0358 -0.1773
vn 0.8443 -0.0316 -0.5350
vn 0.8443 0.0316 0.5350
vn 0.9835 0.0358 0.1773
vn 0.9835 0.0358 -0.1773
vn 0.8443 0.0316 -0.5350
vn 0.8415 0.1069 0.5296
vn 0.9756 0.1247 0.1807
vn 0.9756 0.1247 -0.1807
vn 0.8415 0.1069 -0.5296
vn 0.6896 -0.2211 0.6896
vn 0.2683 -0.2923 0.9179
vn -0.2683 -0.2923 0.9179
vn -0.6896 -0.2211 0.6896
vn 0.9179 -0.2923 0.2683
vn 0.5544 -0.6207 0.5544
vn -0.5544 -0.6207 0.5544
vn -0.9179 -0.2923 0.2683
vn 0.9179 -0.2923 -0.2683
vn 0.5544 -0.6207 -0.5544
vn -0.5544 -0.6207 -0.5544
vn -0.9179 -0.2923 -0.2683
vn 0.6896 -0.2211 -0.6896
vn 0.2683 -0.2923 -0.9179
vn -0.2683 -0.2923 -0.9179
vn -0.6896 -0.2211 -0.6896
vn 0.6896 0.2211 -0.6896
vn 0.2683 0.2923 -0.9179
vn -0.2683 0.2923 -0.9179
vn -0.6896 0.2211 -0.6896
vn 0.9179 0.2923 -0.2683
vn 0.5544 0.6207 -0.5544
vn -0.5544 0.6207 -0.5544
vn -0.9179 0.2923 -0.2683
vn 0.9179 0.2923 0.2683
vn 0.5544 0.6207 0.5544
vn -0.5544 0.6207 0.5544
vn -0.9179 0.2923 0.2683
vn 0.6896 0.2211 0.6896
vn 0.2683 0.2923 0.9179
vn -0.2683 0.2923 0.9179
vn -0.6896 0.2211 0.6896
s 0
f 90//90 91//90 95//90 94//90
f 91//91 92//91 96//91 95//91
f 92//92 93//92 97//92 96//92
f 93//93 106//93 110//93 97//93
f 94//94 95//94 99//94 98//94
f 95//95 96//95 100//95 99//95
f 96//96 97//96 101//96 100//96
f 97//97 110//97 114//97 101//97
f 98//98 99//98 103//98 102//98
f 99//99 100//99 104//99 103//99
f 100//100 101//100 105//100 104//100
f 101//101 114//101 118//101 105//101
f 102//102 103//102 164//102 163//102
f 103//103 104//103 165//103 164//103
f 104//104 105//104 166//104 165//104
f 105//105 118//105 167//105 166//105
f 106//106 107//106 111//106 110//106
f 107//107 108//107 112//107 111//107
f 108//108 109//108 113//108 112//108
f 109//109 122//109 126//109 113//109
f 110//110 111//110 115//110 114//110
f 111//111 112//111 116//111 115//111
f 112//112 113//112 117//112 116//112
f 113//113 126//113 130//113 117//113
f 114//114 115//114 119//114 118//114
f 115//115 116//115 120//115 119//115
f 116//116 117//116 121//116 120//116
f 117//117 130//117 134//117 121//117
f 118//118 119//118 172//118 167//118
f 119//119 120//119 177//119 172//119
f 120//120 121//120 182//120 177//120
f 121//121 134//121 187//121 182//121
f 122//122 123//122 127//122 126//122
f 123//123 124//123 128//123 127//123
f 124//124 125//124 129//124 128//124
f 125//125 138//125 142//125 129//125
f 126//126 127//126 131//126 130//126
f 127//127 128//127 132//127 131//127
f 128//128 129//128 133//128 132//128
f 129//129 142//129 146//129 133//129
f 130//130 131//130 135//130 134//130
f 131//131 132//131 136//131 135//131
f 132//132 133//132 137//132 136//132
f 133//133 146//133 150//133 137//133
f 134//134 135//134 186//134 187//134
f 135//135 136//135 185//135 186//135
f 136//136 137//136 184//136 185//136
f 137//137 150//137 183//137 184//137
f 138//138 139//138 143//138 142//138
f 139//139 140//139 144//139 143//139
f 140//140 141//140 145//140 144//140
f 141//141 90//141 94//141 145//141
f 142//142 143//142 147//142 146//142
f 143//143 144//143 148//143 147//143
f 144//144 145//144 149//144 148//144
f 145//145 94//145 98//145 149//145
f 146//146 147//146 151//146 150//146
f 147//147 148//147 152//147 151//147
f 148//148 149//148 153//148 152//148
f 149//149 98//149 102//149 153//149
f 150//150 151//150 178//150 183//150
f 151//151 152//151 173//151 178//151
f 152//152 153//152 168//152 173//152
f 153//153 102//153 163//153 168//153
f 138//154 125//154 154//154 139//154
f 125//155 124//155 155//155 154//155
f 124//156 123//156 156//156 155//156
f 123//157 122//157 109//157 156//157
f 139//158 154//158 157//158 140//158
f 154//159 155//159 158//159 157//159
f 155//160 156//160 159//160 158//160
f 156//161 109//161 108//161 159//161
f 140//162 157//162 160//162 141//162
f 157//163 158//163 161//163 160//163
f 158//164 159//164 162//164 161//164
f 159//165 108//165 107//165 162//165
f 141//166 160//166 91//166 90//166
f 160//167 161//167 92//167 91//167
f 161//168 162//168 93//168 92//168
f 162//169 107//169 106//169 93//169
f 163//170 164//170 169//170 168//170
f 164//171 165//171 170//171 169//171
f 165//172 166//172 171//172 170//172
f 166//173 167//173 172//173 171//173
f 168//174 169//174 174//174 173//174
f 169//175 170//175 175//175 174//175
f 170//176 171//176 176//176 175//176
f 171//177 172//177 177//177 176//177
f 173//178 174//178 179//178 178//178
f 174//179 175//179 180//179 179//179
f 175//180 176//180 181//180 180//180
f 176//181 177//181 182//181 181//181
f 178//182 179//182 184//182 183//182
f 179//183 180//183 185//183 184//183
f 180//184 181//184 186//184 185//184
f 181//185 182//185 187//185 186//185
