# Blender v3.3.0 OBJ File: 'lilypad.blend'
# www.blender.org
mtllib lilypad.mtl
o Roundcube.001
v 0.949735 -0.120478 -0.907547
v 0.485431 -0.141014 -1.067829
v 0.021126 -0.147217 -1.116247
v -0.443178 -0.141014 -1.067829
v 1.110017 -0.060991 -1.067829
v 0.565572 -0.071259 -1.391065
v 0.021126 -0.074360 -1.483457
v -0.523319 -0.071259 -1.391065
v 1.158436 -0.001504 -1.116247
v 0.589781 -0.001504 -1.483457
v 0.021126 -0.001504 -1.587336
v -0.547528 -0.001504 -1.483457
v 1.110017 0.057984 -1.067829
v 0.565572 0.068251 -1.391065
v 0.021126 0.071353 -1.483457
v -0.523319 0.068251 -1.391065
v -0.907483 -0.120478 -0.907547
v -1.067764 -0.141014 -0.443243
v -1.116183 -0.147217 0.021062
v -1.067764 -0.141014 0.485366
v -1.067764 -0.060991 -1.067829
v -1.391001 -0.071259 -0.523383
v -1.483392 -0.074360 0.021062
v -1.391001 -0.071259 0.565507
v -1.116183 -0.001504 -1.116247
v -1.483392 -0.001504 -0.547593
v -1.587272 -0.001504 0.021062
v -1.483392 -0.001504 0.589716
v -1.067764 0.057984 -1.067829
v -1.391001 0.068251 -0.523383
v -1.483392 0.071353 0.021062
v -1.391001 0.068251 0.565507
v -0.907483 -0.120478 0.949671
v -0.443178 -0.141014 1.109953
v 0.021126 -0.147217 1.158371
v 0.485431 -0.141014 1.109953
v -1.067764 -0.060991 1.109953
v -0.523319 -0.071259 1.433189
v 0.021126 -0.074360 1.525581
v 0.565572 -0.071259 1.433189
v -1.116183 -0.001504 1.158371
v -0.547528 -0.001504 1.525581
v 0.021126 -0.001504 1.629460
v 0.589781 -0.001504 1.525581
v -1.067764 0.057984 1.109953
v -0.523319 0.068251 1.433189
v 0.021126 0.071353 1.525581
v 0.565572 0.068251 1.433189
v 0.059385 -0.056507 0.062024
v 1.110017 -0.141014 0.485366
v 1.158436 -0.147217 0.021062
v 1.110017 -0.141014 -0.443243
v 0.219667 0.002980 0.222306
v 1.433254 -0.071259 0.565507
v 1.525645 -0.074360 0.021062
v 1.433254 -0.071259 -0.523383
v 0.268085 0.062467 0.270724
v 1.525645 -0.001504 0.589716
v 1.629524 -0.001504 0.021062
v 1.525645 -0.001504 -0.547593
v 0.219667 0.121954 0.222306
v 1.433254 0.068251 0.565507
v 1.525645 0.071353 0.021062
v 1.433254 0.068251 -0.523383
v 0.054752 -0.147573 0.056273
v 0.021126 -0.194264 0.589716
v -0.523319 -0.182427 0.565507
v 0.589781 -0.194264 0.021062
v 0.021126 -0.207573 0.021062
v -0.547528 -0.194264 0.021062
v 0.565572 -0.182427 -0.523383
v 0.021126 -0.194264 -0.547593
v -0.523319 -0.182427 -0.523383
v 0.949735 0.117471 -0.907547
v 0.485431 0.138006 -1.067829
v 0.021126 0.144210 -1.116247
v -0.443178 0.138006 -1.067829
v -0.907483 0.117471 -0.907547
v 1.110017 0.138006 -0.443243
v 0.565572 0.179420 -0.523383
v 0.021126 0.191257 -0.547593
v -0.523319 0.179420 -0.523383
v -1.067764 0.138006 -0.443243
v 1.158436 0.144210 0.021062
v 0.589781 0.191257 0.021062
v 0.021126 0.204566 0.021062
v -0.547528 0.191257 0.021062
v -1.116183 0.144210 0.021062
v 1.110017 0.138006 0.485366
v 0.054752 0.214273 0.056273
v 0.021126 0.191257 0.589716
v -0.523319 0.179420 0.565507
v -1.067764 0.138006 0.485366
v 0.059385 0.181442 0.062024
v 0.485431 0.138006 1.109953
v 0.021126 0.144210 1.158371
v -0.443178 0.138006 1.109953
v -0.907483 0.117471 0.949671
vn 0.1450 -0.9661 -0.2136
vn 0.0397 -0.9787 -0.2014
vn -0.0334 -0.9803 -0.1945
vn -0.1069 -0.9770 -0.1844
vn 0.3603 -0.7475 -0.5580
vn 0.1062 -0.8068 -0.5813
vn -0.1016 -0.8145 -0.5712
vn -0.3211 -0.7944 -0.5156
vn 0.3603 0.7475 -0.5580
vn 0.1062 0.8068 -0.5813
vn -0.1016 0.8145 -0.5712
vn -0.3211 0.7944 -0.5156
vn 0.1450 0.9661 -0.2136
vn 0.0397 0.9787 -0.2014
vn -0.0334 0.9803 -0.1945
vn -0.1069 0.9770 -0.1844
vn -0.2136 -0.9661 -0.1450
vn -0.2014 -0.9787 -0.0397
vn -0.1945 -0.9803 0.0334
vn -0.1844 -0.9770 0.1069
vn -0.5580 -0.7475 -0.3603
vn -0.5813 -0.8068 -0.1062
vn -0.5712 -0.8145 0.1016
vn -0.5156 -0.7944 0.3211
vn -0.5580 0.7475 -0.3603
vn -0.5813 0.8068 -0.1062
vn -0.5712 0.8145 0.1016
vn -0.5156 0.7944 0.3211
vn -0.2136 0.9661 -0.1450
vn -0.2014 0.9787 -0.0397
vn -0.1945 0.9803 0.0334
vn -0.1844 0.9770 0.1069
vn -0.1450 -0.9661 0.2136
vn -0.0397 -0.9787 0.2014
vn 0.0334 -0.9803 0.1945
vn 0.9554 0.1301 -0.2650
vn -0.3603 -0.7475 0.5580
vn -0.1062 -0.8068 0.5813
vn 0.1016 -0.8145 0.5712
vn 0.9616 0.0278 -0.2730
vn -0.3603 0.7475 0.5580
vn -0.1062 0.8068 0.5813
vn 0.1016 0.8145 0.5712
vn 0.9687 0.0078 -0.2479
vn -0.1450 0.9661 0.2136
vn -0.0397 0.9787 0.2014
vn 0.0334 0.9803 0.1945
vn 0.9384 -0.2065 -0.2772
vn -0.2937 -0.7624 0.5766
vn 0.2014 -0.9787 0.0397
vn 0.1945 -0.9803 -0.0334
vn 0.1844 -0.9770 -0.1069
vn -0.2377 -0.4894 0.8390
vn 0.5813 -0.8068 0.1062
vn 0.5712 -0.8145 -0.1016
vn 0.5156 -0.7944 -0.3211
vn -0.2139 0.5060 0.8356
vn 0.5813 0.8068 0.1062
vn 0.5712 0.8145 -0.1016
vn 0.5156 0.7944 -0.3211
vn -0.1567 0.8645 0.4775
vn 0.2014 0.9787 0.0397
vn 0.1945 0.9803 -0.0334
vn 0.1844 0.9770 -0.1069
vn -0.3762 -0.0393 0.9257
vn 0.1944 -0.9782 -0.0734
vn -0.0219 -0.9964 0.0824
vn -0.0738 -0.9935 0.0864
vn 0.0824 -0.9964 0.0219
vn 0.0120 -0.5111 0.8595
vn -0.0228 -0.9995 0.0234
vn -0.0795 -0.9965 0.0252
vn 0.0824 -0.9964 -0.0219
vn 0.0234 -0.9995 -0.0228
vn -0.0228 -0.9995 -0.0234
vn -0.0795 -0.9965 -0.0252
vn 0.0864 -0.9935 -0.0738
vn 0.0252 -0.9965 -0.0795
vn -0.0219 -0.9964 -0.0824
vn -0.0738 -0.9935 -0.0864
vn 0.0864 0.9935 -0.0738
vn 0.0252 0.9965 -0.0795
vn -0.0219 0.9964 -0.0824
vn -0.0738 0.9935 -0.0864
vn 0.0824 0.9964 -0.0219
vn 0.0234 0.9995 -0.0228
vn -0.0228 0.9995 -0.0234
vn -0.0795 0.9965 -0.0252
vn 0.0824 0.9964 0.0219
vn 0.0224 0.9581 -0.2856
vn -0.0228 0.9995 0.0234
vn -0.0795 0.9965 0.0252
vn 0.0618 0.9970 0.0469
vn -0.0219 0.9964 0.0824
vn -0.0738 0.9935 0.0864
vn 0.1069 -0.9770 -0.1844
vn 0.0334 -0.9803 -0.1945
vn -0.0397 -0.9787 -0.2014
vn -0.1450 -0.9661 -0.2136
vn 0.3211 -0.7944 -0.5156
vn 0.1016 -0.8145 -0.5712
vn -0.1062 -0.8068 -0.5813
vn -0.3603 -0.7475 -0.5580
vn 0.3211 0.7944 -0.5156
vn 0.1016 0.8145 -0.5712
vn -0.1062 0.8068 -0.5813
vn -0.3603 0.7475 -0.5580
vn 0.1069 0.9770 -0.1844
vn 0.0334 0.9803 -0.1945
vn -0.0397 0.9787 -0.2014
vn -0.1450 0.9661 -0.2136
vn -0.1844 -0.9770 -0.1069
vn -0.1945 -0.9803 -0.0334
vn -0.2014 -0.9787 0.0397
vn -0.2136 -0.9661 0.1450
vn -0.5156 -0.7944 -0.3211
vn -0.5712 -0.8145 -0.1016
vn -0.5813 -0.8068 0.1062
vn -0.5580 -0.7475 0.3603
vn -0.5156 0.7944 -0.3211
vn -0.5712 0.8145 -0.1016
vn -0.5813 0.8068 0.1062
vn -0.5580 0.7475 0.3603
vn -0.1844 0.9770 -0.1069
vn -0.1945 0.9803 -0.0334
vn -0.2014 0.9787 0.0397
vn -0.2136 0.9661 0.1450
vn -0.1069 -0.9770 0.1844
vn -0.0334 -0.9803 0.1945
vn 0.0397 -0.9787 0.2014
vn 0.5785 -0.7599 -0.2965
vn -0.3211 -0.7944 0.5156
vn -0.1016 -0.8145 0.5712
vn 0.1062 -0.8068 0.5813
vn 0.8393 -0.4878 -0.2400
vn -0.3211 0.7944 0.5156
vn -0.1016 0.8145 0.5712
vn 0.1062 0.8068 0.5813
vn 0.8360 0.5043 -0.2164
vn -0.1069 0.9770 0.1844
vn -0.0334 0.9803 0.1945
vn 0.0397 0.9787 0.2014
vn 0.4795 0.8630 -0.1592
vn -0.2633 0.1205 0.9572
vn 0.1945 -0.9803 0.0334
vn 0.2014 -0.9787 -0.0397
vn 0.2136 -0.9661 -0.1450
vn -0.2707 0.0245 0.9624
vn 0.5712 -0.8145 0.1016
vn 0.5813 -0.8068 -0.1062
vn 0.5580 -0.7475 -0.3603
vn -0.2453 0.0115 0.9694
vn 0.5712 0.8145 0.1016
vn 0.5813 0.8068 -0.1062
vn 0.5580 0.7475 -0.3603
vn -0.2749 -0.1915 0.9422
vn 0.1945 0.9803 0.0334
vn 0.2014 0.9787 -0.0397
vn 0.2136 0.9661 -0.1450
vn 0.9255 -0.0232 -0.3781
vn 0.0219 -0.9964 0.0824
vn -0.0252 -0.9965 0.0795
vn -0.0864 -0.9935 0.0738
vn -0.0726 -0.9784 0.1936
vn 0.8694 -0.4940 0.0116
vn -0.0234 -0.9995 0.0228
vn -0.0824 -0.9964 0.0219
vn 0.0795 -0.9965 -0.0252
vn 0.0228 -0.9995 -0.0234
vn -0.0234 -0.9995 -0.0228
vn -0.0824 -0.9964 -0.0219
vn 0.0738 -0.9935 -0.0864
vn 0.0219 -0.9964 -0.0824
vn -0.0252 -0.9965 -0.0795
vn -0.0864 -0.9935 -0.0738
vn 0.0738 0.9935 -0.0864
vn 0.0219 0.9964 -0.0824
vn -0.0252 0.9965 -0.0795
vn -0.0864 0.9935 -0.0738
vn 0.0795 0.9965 -0.0252
vn 0.0228 0.9995 -0.0234
vn -0.0234 0.9995 -0.0228
vn -0.0824 0.9964 -0.0219
vn 0.0470 0.9970 0.0617
vn -0.2988 0.9541 0.0223
vn -0.0234 0.9995 0.0228
vn -0.0824 0.9964 0.0219
vn 0.0219 0.9964 0.0824
vn -0.0252 0.9965 0.0795
vn -0.0864 0.9935 0.0738
vn 0.6901 0.2183 0.6901
usemtl None
s off
f 1//1 6//1 5//1
f 2//2 7//2 6//2
f 4//3 7//3 3//3
f 17//4 8//4 4//4
f 5//5 10//5 9//5
f 6//6 11//6 10//6
f 8//7 11//7 7//7
f 21//8 12//8 8//8
f 10//9 13//9 9//9
f 11//10 14//10 10//10
f 11//11 16//11 15//11
f 12//12 29//12 16//12
f 14//13 74//13 13//13
f 15//14 75//14 14//14
f 15//15 77//15 76//15
f 16//16 78//16 77//16
f 17//17 22//17 21//17
f 18//18 23//18 22//18
f 20//19 23//19 19//19
f 33//20 24//20 20//20
f 21//21 26//21 25//21
f 22//22 27//22 26//22
f 24//23 27//23 23//23
f 37//24 28//24 24//24
f 26//25 29//25 25//25
f 27//26 30//26 26//26
f 27//27 32//27 31//27
f 28//28 45//28 32//28
f 30//29 78//29 29//29
f 31//30 83//30 30//30
f 31//31 93//31 88//31
f 32//32 98//32 93//32
f 33//33 38//33 37//33
f 34//34 39//34 38//34
f 36//35 39//35 35//35
f 36//36 53//36 40//36
f 37//37 42//37 41//37
f 38//38 43//38 42//38
f 40//39 43//39 39//39
f 53//40 44//40 40//40
f 42//41 45//41 41//41
f 43//42 46//42 42//42
f 43//43 48//43 47//43
f 57//44 48//44 44//44
f 46//45 98//45 45//45
f 47//46 97//46 46//46
f 47//47 95//47 96//47
f 61//48 95//48 48//48
f 50//49 53//49 49//49
f 50//50 55//50 54//50
f 52//51 55//51 51//51
f 1//52 56//52 52//52
f 53//53 58//53 57//53
f 54//54 59//54 58//54
f 56//55 59//55 55//55
f 5//56 60//56 56//56
f 57//57 62//57 61//57
f 59//58 62//58 58//58
f 59//59 64//59 63//59
f 60//60 13//60 64//60
f 61//61 89//61 94//61
f 63//62 89//62 62//62
f 63//63 79//63 84//63
f 64//64 74//64 79//64
f 49//65 65//65 50//65
f 36//66 66//66 65//66
f 34//67 66//67 35//67
f 33//68 67//68 34//68
f 50//69 68//69 51//69
f 65//70 69//70 68//70
f 67//71 69//71 66//71
f 20//72 70//72 67//72
f 68//73 52//73 51//73
f 69//74 71//74 68//74
f 69//75 73//75 72//75
f 70//76 18//76 73//76
f 71//77 1//77 52//77
f 72//78 2//78 71//78
f 72//79 4//79 3//79
f 73//80 17//80 4//80
f 74//81 80//81 79//81
f 75//82 81//82 80//82
f 77//83 81//83 76//83
f 78//84 82//84 77//84
f 79//85 85//85 84//85
f 80//86 86//86 85//86
f 82//87 86//87 81//87
f 83//88 87//88 82//88
f 85//89 89//89 84//89
f 86//90 90//90 85//90
f 86//91 92//91 91//91
f 87//92 93//92 92//92
f 91//93 95//93 90//93
f 91//94 97//94 96//94
f 92//95 98//95 97//95
f 1//96 2//96 6//96
f 2//97 3//97 7//97
f 4//98 8//98 7//98
f 17//99 21//99 8//99
f 5//100 6//100 10//100
f 6//101 7//101 11//101
f 8//102 12//102 11//102
f 21//103 25//103 12//103
f 10//104 14//104 13//104
f 11//105 15//105 14//105
f 11//106 12//106 16//106
f 12//107 25//107 29//107
f 14//108 75//108 74//108
f 15//109 76//109 75//109
f 15//110 16//110 77//110
f 16//111 29//111 78//111
f 17//112 18//112 22//112
f 18//113 19//113 23//113
f 20//114 24//114 23//114
f 33//115 37//115 24//115
f 21//116 22//116 26//116
f 22//117 23//117 27//117
f 24//118 28//118 27//118
f 37//119 41//119 28//119
f 26//120 30//120 29//120
f 27//121 31//121 30//121
f 27//122 28//122 32//122
f 28//123 41//123 45//123
f 30//124 83//124 78//124
f 31//125 88//125 83//125
f 31//126 32//126 93//126
f 32//127 45//127 98//127
f 33//128 34//128 38//128
f 34//129 35//129 39//129
f 36//130 40//130 39//130
f 36//131 49//131 53//131
f 37//132 38//132 42//132
f 38//133 39//133 43//133
f 40//134 44//134 43//134
f 53//135 57//135 44//135
f 42//136 46//136 45//136
f 43//137 47//137 46//137
f 43//138 44//138 48//138
f 57//139 61//139 48//139
f 46//140 97//140 98//140
f 47//141 96//141 97//141
f 47//142 48//142 95//142
f 61//143 94//143 95//143
f 50//144 54//144 53//144
f 50//145 51//145 55//145
f 52//146 56//146 55//146
f 1//147 5//147 56//147
f 53//148 54//148 58//148
f 54//149 55//149 59//149
f 56//150 60//150 59//150
f 5//151 9//151 60//151
f 57//152 58//152 62//152
f 59//153 63//153 62//153
f 59//154 60//154 64//154
f 60//155 9//155 13//155
f 61//156 62//156 89//156
f 63//157 84//157 89//157
f 63//158 64//158 79//158
f 64//159 13//159 74//159
f 49//160 36//160 65//160
f 36//161 35//161 66//161
f 34//162 67//162 66//162
f 33//163 20//163 67//163
f 50//164 65//164 68//164
f 65//165 66//165 69//165
f 67//166 70//166 69//166
f 20//167 19//167 70//167
f 68//168 71//168 52//168
f 69//169 72//169 71//169
f 69//170 70//170 73//170
f 70//171 19//171 18//171
f 71//172 2//172 1//172
f 72//173 3//173 2//173
f 72//174 73//174 4//174
f 73//175 18//175 17//175
f 74//176 75//176 80//176
f 75//177 76//177 81//177
f 77//178 82//178 81//178
f 78//179 83//179 82//179
f 79//180 80//180 85//180
f 80//181 81//181 86//181
f 82//182 87//182 86//182
f 83//183 88//183 87//183
f 85//184 90//184 89//184
f 86//185 91//185 90//185
f 86//186 87//186 92//186
f 87//187 88//187 93//187
f 91//188 96//188 95//188
f 91//189 92//189 97//189
f 92//190 93//190 98//190
f 89//191 90//191 95//191 94//191
