# Blender 3.3.0
# www.blender.org
mtllib untitled.mtl
o Object_2
v 0.000000 0.839159 -0.000000
v -0.770817 -0.419580 -0.445031
v 0.000000 -0.419579 0.890063
v 0.770817 -0.419580 -0.445031
v 0.770817 -0.419580 -0.445031
v 0.770817 -0.419580 -0.445031
v 0.000000 -0.419579 0.890063
v 0.000000 -0.419579 0.890063
v 0.000000 0.839159 -0.000000
v 0.000000 0.839159 -0.000000
v -0.770817 -0.419580 -0.445031
v -0.770817 -0.419580 -0.445031
vn -0.8165 0.3333 0.4714
vn -0.0000 -1.0000 -0.0000
vn 0.8165 0.3333 0.4714
vn -0.0000 0.3333 -0.9428
s 0
usemtl Scene_-_Root
f 1//1 2//1 3//1
s 1
f 11//2 4//2 7//2
s 0
f 8//3 5//3 9//3
f 10//4 6//4 12//4
